<svg width="22" height="22" viewBox="0 0 22 22" fill="none" xmlns="http://www.w3.org/2000/svg">
<g id="Frame 103">
<rect width="22" height="22" rx="11" fill="#BF9336"/>
<g id="Vector 21">
<path d="M5 11.6087L6.68421 7.55072L9.10526 10.7971L5 11.6087Z" fill="white"/>
<path d="M13.4211 4L7.73684 6.43478L10.6842 10.7971L16.7895 12.2174L13.4211 4Z" fill="white"/>
<path d="M9.94737 11.913L5 13.1304L8.05263 18H14.8947L17 13.6377L9.94737 11.913Z" fill="white"/>
<path d="M5 11.6087L6.68421 7.55072L9.10526 10.7971L5 11.6087Z" stroke="white" stroke-width="0.211126"/>
<path d="M13.4211 4L7.73684 6.43478L10.6842 10.7971L16.7895 12.2174L13.4211 4Z" stroke="white" stroke-width="0.211126"/>
<path d="M9.94737 11.913L5 13.1304L8.05263 18H14.8947L17 13.6377L9.94737 11.913Z" stroke="white" stroke-width="0.211126"/>
</g>
</g>
</svg>
