<svg width="22" height="22" viewBox="0 0 22 22" fill="none" xmlns="http://www.w3.org/2000/svg">
<g id="Frame 103">
<rect width="22" height="22" rx="11" fill="#EE8E35"/>
<path id="Vector" d="M11.0979 4.00065C7.16127 3.94748 3.94748 7.16127 4.00065 11.0979C4.05315 14.8734 7.12729 17.9475 10.9027 18C14.8401 18.0538 18.0532 14.8401 17.9993 10.9034C17.9475 7.12729 14.8734 4.05315 11.0979 4.00065ZM16.8222 10.4592L13.6898 10.4558C13.6745 10.4558 13.6596 10.4506 13.6477 10.441C13.6358 10.4313 13.6275 10.418 13.6242 10.403C13.4903 9.8186 13.1654 9.29554 12.7008 8.91658C12.689 8.90701 12.6807 8.89371 12.6774 8.87886C12.6741 8.86401 12.6759 8.84848 12.6826 8.8348L14.0731 6.02719C14.0773 6.01868 14.0832 6.01114 14.0905 6.00507C14.0977 5.999 14.1062 5.99453 14.1153 5.99196C14.1244 5.98939 14.134 5.98877 14.1434 5.99014C14.1527 5.99151 14.1617 5.99485 14.1697 5.99993C14.9241 6.47868 15.5606 7.12173 16.0316 7.88103C16.5025 8.64033 16.7958 9.49625 16.8895 10.3848C16.8905 10.3942 16.8895 10.4038 16.8865 10.4128C16.8836 10.4218 16.8788 10.43 16.8724 10.4371C16.8661 10.4441 16.8583 10.4497 16.8497 10.4535C16.841 10.4573 16.8316 10.4593 16.8222 10.4592ZM9.39175 11.1477C9.36145 10.8171 9.4338 10.4851 9.59894 10.197C9.76408 9.90891 10.014 9.67872 10.3147 9.53777C10.6153 9.39682 10.9521 9.35195 11.2792 9.40928C11.6063 9.4666 11.9077 9.62334 12.1425 9.85814C12.3773 10.0929 12.5341 10.3944 12.5914 10.7215C12.6487 11.0485 12.6038 11.3853 12.4629 11.686C12.3219 11.9867 12.0917 12.2366 11.8037 12.4017C11.5156 12.5669 11.1836 12.6392 10.8529 12.6089C10.477 12.5745 10.125 12.4095 9.85812 12.1425C9.5912 11.8756 9.42619 11.5236 9.39175 11.1477ZM7.92619 6.02719L9.31771 8.8348C9.32437 8.84848 9.3262 8.86401 9.3229 8.87886C9.3196 8.89371 9.31137 8.90701 9.29954 8.91658C8.83471 9.29544 8.50952 9.81851 8.37545 10.403C8.3721 10.4182 8.36355 10.4319 8.35127 10.4415C8.33899 10.4511 8.32375 10.4562 8.30814 10.4558L5.17579 10.4592C5.16632 10.4593 5.15695 10.4573 5.14829 10.4535C5.13963 10.4497 5.13186 10.4441 5.12551 10.4371C5.11916 10.43 5.11436 10.4218 5.11143 10.4128C5.10849 10.4038 5.10749 10.3942 5.10848 10.3848C5.20216 9.49625 5.49544 8.64033 5.9664 7.88103C6.43737 7.12173 7.07384 6.47868 7.82826 5.99993C7.8363 5.99462 7.84539 5.99109 7.85491 5.98959C7.86443 5.98808 7.87416 5.98864 7.88344 5.99123C7.89273 5.99381 7.90135 5.99836 7.90872 6.00457C7.9161 6.01077 7.92206 6.01849 7.92619 6.02719ZM7.91374 15.9661L9.8087 13.4728C9.818 13.4606 9.83117 13.452 9.84604 13.4483C9.86091 13.4446 9.87658 13.4461 9.89048 13.4526C10.2393 13.6109 10.6179 13.6928 11.001 13.6928C11.3841 13.6928 11.7627 13.6109 12.1115 13.4526C12.1254 13.4461 12.1411 13.4446 12.156 13.4483C12.1708 13.452 12.184 13.4606 12.1933 13.4728L14.0883 15.9661C14.094 15.9735 14.0981 15.9821 14.1003 15.9913C14.1025 16.0005 14.1027 16.01 14.101 16.0192C14.0993 16.0285 14.0957 16.0373 14.0903 16.0451C14.085 16.0528 14.0781 16.0594 14.0701 16.0643C13.1452 16.6261 12.0838 16.9231 11.0017 16.9231C9.91954 16.9231 8.85817 16.6261 7.93326 16.0643C7.92513 16.0595 7.91811 16.053 7.91265 16.0453C7.90719 16.0376 7.90342 16.0288 7.90157 16.0195C7.89973 16.0103 7.89986 16.0007 7.90196 15.9915C7.90406 15.9823 7.90807 15.9736 7.91374 15.9661Z" fill="white"/>
</g>
</svg>
