<svg width="22" height="22" viewBox="0 0 22 22" fill="none" xmlns="http://www.w3.org/2000/svg">
<g id="Frame 103">
<rect width="22" height="22" rx="11" fill="#C66AAA"/>
<path id="Vector" d="M4.72414 9.5C4.53208 9.5 4.3479 9.42098 4.2121 9.28033C4.07629 9.13968 4 8.94891 4 8.75C4 8.55109 4.07629 8.36032 4.2121 8.21967C4.3479 8.07902 4.53208 8 4.72414 8H10.5172C10.7093 8 10.8935 7.92098 11.0293 7.78033C11.1651 7.63968 11.2414 7.44891 11.2414 7.25C11.2414 7.05109 11.1651 6.86032 11.0293 6.71967C10.8935 6.57902 10.7093 6.5 10.5172 6.5C10.2841 6.50703 10.0624 6.6066 9.8981 6.77813C9.76073 6.90784 9.58045 6.97786 9.3946 6.9737C9.20874 6.96953 9.03156 6.8915 8.89972 6.75576C8.76789 6.62002 8.6915 6.43697 8.68639 6.24451C8.68127 6.05205 8.74782 5.86492 8.87224 5.72187C9.3089 5.26858 9.89907 5.0096 10.5172 5C11.0934 5 11.646 5.23705 12.0534 5.65901C12.4608 6.08097 12.6897 6.65326 12.6897 7.25C12.6897 7.84674 12.4608 8.41903 12.0534 8.84099C11.646 9.26295 11.0934 9.5 10.5172 9.5H4.72414ZM15.8276 7.25C15.2086 7.25895 14.6174 7.51798 14.1802 7.97188C14.0557 8.11492 13.9892 8.30205 13.9943 8.49451C13.9994 8.68697 14.0758 8.87002 14.2077 9.00576C14.3395 9.1415 14.5167 9.21953 14.7025 9.2237C14.8884 9.22786 15.0687 9.15784 15.206 9.02812C15.3709 8.85601 15.5936 8.75639 15.8276 8.75C16.0196 8.75 16.2038 8.82902 16.3396 8.96967C16.4754 9.11032 16.5517 9.30109 16.5517 9.5C16.5517 9.69891 16.4754 9.88968 16.3396 10.0303C16.2038 10.171 16.0196 10.25 15.8276 10.25H5.2069C5.01484 10.25 4.83066 10.329 4.69485 10.4697C4.55905 10.6103 4.48276 10.8011 4.48276 11C4.48276 11.1989 4.55905 11.3897 4.69485 11.5303C4.83066 11.671 5.01484 11.75 5.2069 11.75H15.8276C16.4037 11.75 16.9563 11.5129 17.3637 11.091C17.7711 10.669 18 10.0967 18 9.5C18 8.90326 17.7711 8.33097 17.3637 7.90901C16.9563 7.48705 16.4037 7.25 15.8276 7.25ZM12.4483 12.5H5.68966C5.4976 12.5 5.31341 12.579 5.17761 12.7197C5.04181 12.8603 4.96552 13.0511 4.96552 13.25C4.96552 13.4489 5.04181 13.6397 5.17761 13.7803C5.31341 13.921 5.4976 14 5.68966 14H12.4483C12.6403 14 12.8245 14.079 12.9603 14.2197C13.0961 14.3603 13.1724 14.5511 13.1724 14.75C13.1724 14.9489 13.0961 15.1397 12.9603 15.2803C12.8245 15.421 12.6403 15.5 12.4483 15.5C12.2149 15.4929 11.9931 15.3934 11.8285 15.2219C11.7629 15.1464 11.6831 15.0855 11.594 15.0429C11.505 15.0003 11.4085 14.977 11.3105 14.9742C11.2124 14.9714 11.1148 14.9892 11.0236 15.0267C10.9324 15.0641 10.8496 15.1204 10.78 15.192C10.7104 15.2636 10.6556 15.3491 10.619 15.4433C10.5823 15.5376 10.5644 15.6385 10.5666 15.7401C10.5687 15.8417 10.5907 15.9417 10.6313 16.0342C10.6719 16.1267 10.7302 16.2097 10.8027 16.2781C11.2395 16.7316 11.8299 16.9906 12.4483 17C13.0244 17 13.577 16.7629 13.9844 16.341C14.3918 15.919 14.6207 15.3467 14.6207 14.75C14.6207 14.1533 14.3918 13.581 13.9844 13.159C13.577 12.7371 13.0244 12.5 12.4483 12.5Z" fill="white"/>
</g>
</svg>
